<svg width="36" height="36" viewBox="0 0 36 36" fill="none" xmlns="http://www.w3.org/2000/svg">
<rect width="36" height="36" fill="white"/>
<path fill-rule="evenodd" clip-rule="evenodd" d="M4.5 10.5H31.5C32.4 10.5 33 9.9 33 9C33 8.1 32.4 7.5 31.5 7.5H4.5C3.6 7.5 3 8.1 3 9C3 9.9 3.6 10.5 4.5 10.5ZM33 18C33 18.9 32.4 19.5 31.5 19.5H4.5C3.6 19.5 3 18.9 3 18C3 17.1 3.6 16.5 4.5 16.5H31.5C32.4 16.5 33 17.1 33 18ZM4.5 25.5H31.5C32.4 25.5 33 26.1 33 27C33 27.9 32.4 28.5 31.5 28.5H4.5C3.6 28.5 3 27.9 3 27C3 26.1 3.6 25.5 4.5 25.5Z" fill="#EB5757"/>
<mask id="mask0_2_775" style="mask-type:alpha" maskUnits="userSpaceOnUse" x="3" y="7" width="30" height="22">
<path fill-rule="evenodd" clip-rule="evenodd" d="M4.5 10.5H31.5C32.4 10.5 33 9.9 33 9C33 8.1 32.4 7.5 31.5 7.5H4.5C3.6 7.5 3 8.1 3 9C3 9.9 3.6 10.5 4.5 10.5ZM33 18C33 18.9 32.4 19.5 31.5 19.5H4.5C3.6 19.5 3 18.9 3 18C3 17.1 3.6 16.5 4.5 16.5H31.5C32.4 16.5 33 17.1 33 18ZM4.5 25.5H31.5C32.4 25.5 33 26.1 33 27C33 27.9 32.4 28.5 31.5 28.5H4.5C3.6 28.5 3 27.9 3 27C3 26.1 3.6 25.5 4.5 25.5Z" fill="white"/>
</mask>
<g mask="url(#mask0_2_775)">
<path fill-rule="evenodd" clip-rule="evenodd" d="M0 0H36V36H0V0Z" fill="#F64702"/>
</g>
</svg>
